_________________________  Visit us at _________________________
  
http://p2pdl.com  ____________________________  http://p2pdl.com

 
http://cdn.piczend.com/images/Vgn2exyn/1361812059_cover.jpg

Company Of Heroes 2013 BRRip 720p x264 AAC - PRiSTiNE

Genre: Action | War
Plot: American soldiers lost behind enemy lines during the WWII make a horrific discovery: 
Hitler has a super bomb in development. Against all odds, they set out to find the scientist 
in charge of the program who is looking to defect.
Director: Don Michael Paul
Stars: Tom Sizemore, Chad Michael Collins, Vinnie Jones
Rated: Rated R for bloody war violence throughout, some language and brief nudity.

Info: 
http://www.imdb.com/title/tt2555426/
 
http://www.rottentomatoes.com/m/company_of_heroes/

General
Complete name                  : Company Of Heroes 2013 BRRip 720p x264 AAC - PRiSTiNE.mp4
Format                         : MPEG-4
Format profile                 : Base Media / Version 2
Codec ID                       : mp42
File size                      : 564 MiB
Duration                       : 1h 40mn
Overall bit rate mode          : Variable
Overall bit rate               : 785 Kbps

Source                         : 720p.BluRay.DTS.x264-PHD

Video
ID                             : 1
Format                         : AVC
Width                          : 1 280 pixels
Height                         : 720 pixels
Display aspect ratio           : 16:9
Frame rate mode                : Variable
Frame rate                     : 23.976 fps
Bit depth                      : 8 bits
Scan type                      : Progressive
Bits/(Pixel*Frame)             : 0.032
Stream size                    : 503 MiB (89%)
Writing library                : x264 core 129

Audio
Format                         : AAC
Bit rate mode                  : Variable
Bit rate                       : 80.0 Kbps
Channel(s)                     : 2 channels
Channel positions              : Front: L R
Sampling rate                  : 48.0 KHz
Stream size                    : 57.5 MiB (10%)
Language                       : English

Subtitle                       : Yes ( English)


Screens: 
http://cdn.piczend.com/images/PB5zwZDH/1361811973_1.jpg 
http://cdn.piczend.com/images/FCLkkRnv/1361811973_2.jpg 
http://cdn.piczend.com/images/SkJyTeMW/1361811973_3.jpg 
http://cdn.piczend.com/images/vHUvlOxS/1361811973_4.jpg


Thumbs:
 
http://cdn.piczend.com/images/dgU5tQ1a/1361812059_thumbs.jpg
----------------------------------------------------------------------------------------------------


Recommend to you to use latest version of VLC player. Install K-Lite Codec Pack or shark007 codecs
in case of any kind of problem in playback (For non-VLC Media Player users). Alternatively, install
Core AVC codecs, the fastest decoder that there is coupled with Community Center Codec Pack and play
on Windows Media Player Classic. Check sample to be sure.
Enjoy!

Greets to: VYTO, a2zRG, MusiK_KinG, Kuroyukihime, TorDigger, Ash968, StyLishSaLH, Masta and staff members at
ExtraTorrent, TPB, H33T, KAT, 1337x, PublicHD, Ahashare, BTScene, SilverTorrent, LimeTorrents, TorrentMafia,
P2PDL, and all others.

Encoder Notes: Looking For Early Access To Anything You Can Provide DVDScr, R5, DVDR, BluRay, Direct
Audio, Early Music Releases, Seedboxes, Dedicated Servers anything u can provide, Advance / Promo CDs/
DVDs. If You Got anything to offer contact me at "prg@hush.com".